<?xml version="1.0" encoding="utf-8"?>
<!-- Generator: Adobe Illustrator 19.2.0, SVG Export Plug-In . SVG Version: 6.00 Build 0)  -->
<svg version="1.1" xmlns="http://www.w3.org/2000/svg" xmlns:xlink="http://www.w3.org/1999/xlink" x="0px" y="0px"
	 viewBox="0 0 50.4 50.4" style="enable-background:new 0 0 50.4 50.4;" xml:space="preserve">
<style type="text/css">
	.st0{fill:#BCBEC0;}
</style>
<g id="Layer_1">
</g>
<g id="Layer_2">
</g>
<g id="Layer_3">
	<g>
		<path class="st0" d="M42.8,45.6c-0.8,0-1.7-0.3-2.2-0.9l-8.5-8.5c-2.9,2-6.4,3.1-9.9,3.1c-9.7,0-17.5-7.8-17.5-17.5
			S12.5,4.2,22.1,4.2s17.5,7.8,17.5,17.5c0,3.5-1.1,7-3.1,9.9l8.5,8.5c0.6,0.6,0.9,1.4,0.9,2.2C46,44.2,44.6,45.6,42.8,45.6z
			 M22.1,10.6c-6.1,0-11.1,5-11.1,11.1s5,11.1,11.1,11.1s11.1-5,11.1-11.1S28.3,10.6,22.1,10.6z"/>
	</g>
</g>
</svg>
