<?xml version="1.0" encoding="utf-8"?>
<!-- Generator: Adobe Illustrator 19.2.0, SVG Export Plug-In . SVG Version: 6.00 Build 0)  -->
<svg version="1.1" xmlns="http://www.w3.org/2000/svg" xmlns:xlink="http://www.w3.org/1999/xlink" x="0px" y="0px"
	 viewBox="0 0 50.4 50.4" style="enable-background:new 0 0 50.4 50.4;" xml:space="preserve">
<style type="text/css">
	.st0{fill:#FFFFFF;}
</style>
<g id="Layer_1">
</g>
<g id="Layer_2">
</g>
<g id="Layer_3">
	<g>
		<path class="st0" d="M42.8,38.6l-4.2,4.2c-0.6,0.6-1.3,0.9-2.1,0.9s-1.6-0.3-2.1-0.9l-9.1-9.1l-9.1,9.1c-0.6,0.6-1.3,0.9-2.1,0.9
			s-1.6-0.3-2.1-0.9l-4.2-4.2C7,38,6.7,37.2,6.7,36.5s0.3-1.6,0.9-2.1l9.1-9.1l-9.1-9.1c-0.6-0.6-0.9-1.3-0.9-2.1s0.3-1.6,0.9-2.1
			l4.2-4.2c0.6-0.6,1.3-0.9,2.1-0.9s1.6,0.3,2.1,0.9l9.1,9.1l9.1-9.1c0.6-0.6,1.3-0.9,2.1-0.9S38,7,38.6,7.6l4.2,4.2
			c0.6,0.6,0.9,1.3,0.9,2.1s-0.3,1.6-0.9,2.1l-9.1,9.1l9.1,9.1c0.6,0.6,0.9,1.3,0.9,2.1S43.4,38,42.8,38.6z"/>
	</g>
</g>
</svg>
